<svg width="20" height="20" viewBox="0 0 20 20" fill="none" xmlns="http://www.w3.org/2000/svg">
<rect width="20" height="20" fill="#F5F5F5"/>
<g id="Home" clip-path="url(#clip0_0_1)">
<rect width="1440" height="7252" transform="translate(-135 -43)" fill="white"/>
<g id="Header">
<rect id="Base" x="-135" y="-43" width="1440" height="1072" fill="#E0EAE5"/>
<g id="Navigation">
<g id="Logo">
<g id="Union">
<path d="M13 3C13 4.65686 11.6569 6 10 6C8.34314 6 7 4.65686 7 3C7 1.34315 8.34314 0 10 0C11.6569 0 13 1.34315 13 3Z" fill="#032E32"/>
<path d="M0 17.529V6C0 6 5.45399 6 10 8.47099C14.546 6 20 6 20 6V17.529C20 17.529 15.379 17.357 10 20C4.621 17.357 0 17.529 0 17.529Z" fill="#032E32"/>
</g>
</g>
</g>
</g>
</g>
<defs>
<clipPath id="clip0_0_1">
<rect width="1440" height="7252" fill="white" transform="translate(-135 -43)"/>
</clipPath>
</defs>
</svg>
